<svg id="visual" viewBox="0 0 1920 1080" width="1920" height="1080" xmlns="http://www.w3.org/2000/svg" xmlns:xlink="http://www.w3.org/1999/xlink" version="1.1"><rect width="1920" height="1080" fill="#ffffff"></rect><g><g transform="translate(1699 541)"><path d="M197 -156.5C244.4 -97.7 264.3 -16.4 245.7 52.4C227.1 121.2 169.9 177.6 103.7 205.7C37.6 233.9 -37.5 233.8 -102 205.3C-166.5 176.7 -220.3 119.7 -233.4 55.3C-246.5 -9.1 -218.9 -80.8 -173.2 -139.2C-127.5 -197.6 -63.7 -242.7 5.5 -247.1C74.8 -251.5 149.6 -215.2 197 -156.5Z" fill="#f1cbca"></path></g><g transform="translate(528 525)"><path d="M148.3 -123.8C178.1 -80.9 178.5 -20 161.5 29.8C144.5 79.7 110.1 118.5 66.8 139.8C23.4 161.1 -28.9 164.9 -69.7 145.1C-110.5 125.3 -139.7 81.9 -148.6 35.9C-157.6 -10.2 -146.3 -58.9 -118.1 -101.5C-90 -144 -45 -180.4 7.1 -186.1C59.2 -191.7 118.5 -166.7 148.3 -123.8Z" fill="#f1cbca"></path></g><g transform="translate(1286 62)"><path d="M87.3 -70.3C108.1 -43.6 116.3 -7.6 110.3 27.8C104.4 63.3 84.2 98.1 54.1 112.8C23.9 127.6 -16.2 122.2 -45.6 104.3C-74.9 86.5 -93.6 56 -103.6 21.1C-113.5 -13.7 -114.7 -53.1 -96 -79.3C-77.3 -105.6 -38.7 -118.6 -2.7 -116.5C33.3 -114.3 66.6 -97 87.3 -70.3Z" fill="#f1cbca"></path></g><g transform="translate(1148 1058)"><path d="M157.3 -127.7C194.4 -78.9 208.4 -14.1 195 44.4C181.6 102.9 140.7 155 90.3 174.3C39.8 193.5 -20.1 179.8 -69.2 152.7C-118.3 125.6 -156.5 85 -170.7 35.4C-184.9 -14.3 -175.1 -73 -142.6 -120.8C-110.2 -168.6 -55.1 -205.4 2.5 -207.4C60.1 -209.4 120.2 -176.6 157.3 -127.7Z" fill="#f1cbca"></path></g><g transform="translate(7 868)"><path d="M173.3 -137.2C216.4 -84.2 237.4 -12.6 224.4 54C211.4 120.7 164.5 182.4 104.8 207.1C45.1 231.9 -27.4 219.7 -89.3 188.6C-151.2 157.6 -202.6 107.8 -218.7 47.1C-234.8 -13.6 -215.6 -85.2 -173.3 -137.9C-131 -190.7 -65.5 -224.7 -0.2 -224.6C65.1 -224.4 130.3 -190.1 173.3 -137.2Z" fill="#f1cbca"></path></g><g transform="translate(69 21)"><path d="M147.1 -116.3C177.3 -79.5 179.3 -19.1 164.6 34.6C150 88.2 118.8 135.1 74.6 157.4C30.3 179.7 -27 177.4 -78 155.4C-129 133.3 -173.7 91.6 -188.2 39.6C-202.7 -12.3 -187 -74.5 -150.7 -112.8C-114.3 -151 -57.1 -165.3 0.7 -165.8C58.5 -166.4 116.9 -153.1 147.1 -116.3Z" fill="#f1cbca"></path></g></g></svg>