<svg id="visual" viewBox="0 0 1920 1080" width="1920" height="1080" xmlns="http://www.w3.org/2000/svg" xmlns:xlink="http://www.w3.org/1999/xlink" version="1.1"><rect width="1920" height="1080" fill="#f1f0ff"></rect><g><g transform="translate(464 291)"><path d="M181.8 -146.3C218.6 -99 219.4 -24.3 200.7 41.1C182 106.5 143.7 162.7 89.4 190.9C35 219.1 -35.3 219.3 -93.8 192.1C-152.3 165 -198.8 110.5 -214.7 47.2C-230.6 -16.1 -215.8 -88.2 -174.9 -136.5C-134 -184.9 -67 -209.4 2.8 -211.6C72.6 -213.9 145.1 -193.7 181.8 -146.3Z" fill="#5d5c8b"></path></g><g transform="translate(943 1004)"><path d="M120.6 -101.2C144.4 -66.4 143.6 -16.9 130.1 24.7C116.6 66.3 90.5 99.9 55 118.9C19.4 137.8 -25.5 141.9 -60.5 125.2C-95.5 108.5 -120.6 70.9 -130.1 29.6C-139.6 -11.6 -133.4 -56.5 -109.1 -91.4C-84.8 -126.3 -42.4 -151.2 3 -153.6C48.4 -156 96.8 -135.9 120.6 -101.2Z" fill="#5d5c8b"></path></g><g transform="translate(5 733)"><path d="M183.4 -147.3C219.8 -100.5 219.2 -25.3 199.4 39.2C179.6 103.6 140.6 157.4 83.4 192.3C26.1 227.3 -49.4 243.4 -112.2 218.7C-175 194 -225 128.4 -239.2 57.2C-253.4 -14 -231.8 -90.8 -185.9 -139.7C-140.1 -188.6 -70 -209.7 1.7 -211C73.5 -212.4 146.9 -194.1 183.4 -147.3Z" fill="#5d5c8b"></path></g><g transform="translate(1842 906)"><path d="M129.3 -103.7C158.7 -66.2 167.5 -13 154.9 32.7C142.4 78.4 108.5 116.6 64.1 140.9C19.8 165.2 -34.9 175.7 -79 157.1C-123.1 138.6 -156.7 91 -166.8 40C-176.9 -11 -163.6 -65.4 -131.9 -103.4C-100.2 -141.4 -50.1 -162.9 -0.1 -162.9C49.9 -162.8 99.9 -141.2 129.3 -103.7Z" fill="#5d5c8b"></path></g><g transform="translate(1688 265)"><path d="M108.4 -80.9C139.6 -47.4 163.3 -2.4 156.3 38.7C149.4 79.8 111.8 117 68.1 136C24.4 155 -25.5 155.7 -67.4 136.8C-109.4 117.8 -143.4 79.2 -155.4 33.5C-167.4 -12.1 -157.3 -64.8 -127.7 -98C-98.2 -131.1 -49.1 -144.8 -5.2 -140.6C38.6 -136.5 77.3 -114.5 108.4 -80.9Z" fill="#5d5c8b"></path></g><g transform="translate(1102 420)"><path d="M117.9 -88.7C151.1 -52.4 175.2 -3.4 166.1 38.6C157 80.6 114.8 115.7 66.5 139.5C18.1 163.3 -36.3 175.9 -78.4 157.6C-120.5 139.4 -150.2 90.2 -159.2 39.6C-168.2 -11.1 -156.5 -63.3 -126.5 -98.9C-96.5 -134.5 -48.3 -153.5 -3 -151.2C42.3 -148.8 84.7 -125.1 117.9 -88.7Z" fill="#5d5c8b"></path></g></g></svg>