<svg xmlns="http://www.w3.org/2000/svg" xmlns:xlink="http://www.w3.org/1999/xlink" width="180" height="100" viewBox="0 0 180 100"><defs><style>.a{fill:#623686;opacity:0;}.b{clip-path:url(#a);}.c{fill:none;stroke:#484848;stroke-linecap:round;stroke-linejoin:round;stroke-width:3px;}</style><clipPath id="a"><rect class="a" width="180" height="100" transform="translate(164 797)"/></clipPath></defs><g class="b" transform="translate(-164 -797)"><g transform="translate(200.053 793.328)"><circle class="c" cx="5.302" cy="5.302" r="5.302" transform="translate(28.428 36.246)"/><circle class="c" cx="5.302" cy="5.302" r="5.302" transform="translate(47.607 30.945)"/><circle class="c" cx="5.302" cy="5.302" r="5.302" transform="translate(66.51 36.292)"/><path class="c" d="M27.554,71.09V61.763a6.939,6.939,0,0,1,6.939-6.939h0a6.938,6.938,0,0,1,6.938,6.939v4.258" transform="translate(-0.763 -4.494)"/><path class="c" d="M51.179,65.242V55.914a6.938,6.938,0,0,1,6.938-6.938h0a6.938,6.938,0,0,1,6.938,6.938v9.328" transform="translate(-5.208 -3.393)"/><path class="c" d="M74.463,66.342V61.763A6.939,6.939,0,0,1,81.4,54.824h0a6.938,6.938,0,0,1,6.938,6.939V71.09" transform="translate(-9.59 -4.494)"/><path class="c" d="M23.5,82.874s10.229-6.888,29.407-6.888c18.9,0,29.484,6.888,29.484,6.888" transform="translate(0 -6.476)"/></g></g></svg>